<?xml version="1.0" standalone="no"?>
<!DOCTYPE svg PUBLIC "-//W3C//DTD SVG 20010904//EN"
 "http://www.w3.org/TR/2001/REC-SVG-20010904/DTD/svg10.dtd">
<svg version="1.0" xmlns="http://www.w3.org/2000/svg"
 width="618.000000pt" height="664.000000pt" viewBox="0 0 618.000000 664.000000"
 preserveAspectRatio="xMidYMid meet">

<g transform="translate(0.000000,664.000000) scale(0.100000,-0.100000)"
fill="#000000" stroke="none">
<path d="M451 6570 c-216 -57 -331 -213 -357 -485 -10 -108 -4 -5453 6 -5535
l9 -65 -4 82 c-2 47 1 86 7 89 5 3 11 4 13 3 1 -2 8 -57 14 -121 6 -65 20
-144 30 -178 10 -33 17 -60 16 -60 -8 0 -39 70 -56 125 -10 36 -18 50 -18 35
-2 -76 71 -222 143 -286 110 -100 216 -129 501 -139 239 -9 1353 -8 1795 1
265 5 328 9 395 26 101 25 192 75 244 134 39 45 111 173 111 199 0 7 6 18 14
25 16 12 56 6 506 -75 461 -83 901 -144 1032 -145 200 0 339 92 418 277 16 37
29 77 29 88 0 11 -13 -14 -29 -55 -16 -41 -44 -91 -60 -110 l-31 -35 35 74
c19 41 45 116 57 168 17 73 25 93 38 91 11 -2 17 6 19 24 3 22 0 27 -12 22 -9
-4 -16 -1 -16 6 0 7 61 396 135 864 310 1961 575 3639 595 3758 11 70 20 130
20 133 0 3 7 5 15 5 18 0 18 4 0 -100 -8 -47 -14 -94 -14 -105 2 -30 48 245
47 280 l0 30 -7 -30 c-11 -50 -26 -24 -21 35 7 79 6 177 -2 235 l-7 50 15 -35
c10 -20 19 -81 24 -145 l7 -110 1 91 c2 111 -9 177 -44 249 -52 112 -169 197
-314 229 -118 27 -2097 336 -2149 336 -115 0 -220 -40 -301 -116 l-47 -44 -39
52 c-49 66 -129 122 -214 151 l-65 22 -1205 2 c-1166 2 -1207 1 -1279 -17z
m2502 -13 c61 -18 101 -36 95 -42 -2 -3 -41 5 -86 16 -79 19 -113 19 -1274 16
-1116 -2 -1196 -4 -1245 -21 -29 -9 -61 -16 -70 -14 -27 6 87 46 159 57 36 5
560 8 1213 7 1060 -1 1155 -3 1208 -19z m872 -78 c72 -11 198 -31 280 -44 83
-14 480 -77 884 -141 404 -63 760 -124 792 -134 60 -18 154 -68 146 -77 -3 -2
-27 7 -54 21 -90 45 -39 36 -1268 230 -330 52 -674 107 -765 122 -135 21 -185
25 -275 20 -84 -4 -105 -3 -91 6 25 14 118 25 176 20 25 -2 104 -12 175 -23z
m-2909 -91 c5 -7 11 -37 15 -66 6 -40 15 -63 36 -84 61 -64 32 -62 748 -59
401 1 662 6 682 12 51 16 95 79 102 147 l6 57 204 3 c200 2 204 2 260 -23 69
-32 105 -65 139 -130 l27 -50 3 -655 c2 -360 0 -692 -3 -738 l-7 -82 -41 23
c-35 19 -42 28 -39 49 1 15 -2 29 -8 33 -6 4 -10 -4 -10 -19 0 -29 -21 -34
-40 -11 -10 12 -10 15 1 15 9 0 5 7 -9 18 -13 10 -25 31 -27 47 -5 42 -6 42
-14 21 -6 -16 -10 -14 -28 21 l-21 41 24 11 c64 29 13 38 -228 40 -226 2 -294
9 -348 37 -25 13 -50 24 -55 24 -22 0 -33 22 -25 50 8 28 7 28 -25 23 -26 -4
-35 -1 -49 18 -9 13 -16 34 -16 46 0 14 -6 23 -15 23 -10 0 -15 -10 -15 -30 0
-20 5 -30 15 -30 17 0 20 -16 4 -26 -16 -9 -37 16 -42 50 -3 24 -9 30 -33 33
l-29 4 28 -23 c41 -34 16 -79 -34 -63 -27 9 -23 25 6 25 14 0 25 4 25 8 0 5
-11 14 -25 20 -14 7 -25 20 -25 31 0 11 -4 23 -10 26 -6 4 -10 -15 -10 -49 0
-69 -15 -73 -24 -7 -4 28 -14 54 -24 62 -14 11 -15 11 -4 -1 18 -21 15 -28
-15 -32 l-28 -4 28 -14 c15 -7 27 -21 27 -31 0 -22 -32 -41 -54 -33 -23 9 -20
27 3 19 31 -10 32 10 2 33 -16 12 -29 27 -28 34 1 44 -5 58 -28 64 -14 3 -25
11 -25 17 0 6 -2 8 -5 6 -2 -3 7 -36 21 -74 13 -38 23 -76 20 -85 -3 -11 -6
-9 -11 7 -11 35 -43 36 -65 1 -28 -47 -31 -18 -5 63 13 41 21 76 19 78 -2 2
-10 -2 -19 -9 -12 -10 -15 -10 -15 2 0 8 -6 15 -12 16 -7 0 -31 7 -53 16 -22
8 -48 15 -59 16 -10 0 -36 16 -57 35 -22 19 -43 35 -48 35 -5 0 -21 26 -37 58
-16 31 -32 58 -35 60 -4 2 -5 12 -2 22 4 16 0 20 -21 20 -62 0 -106 35 -119
95 -3 11 -5 -4 -6 -34 l-1 -54 -45 5 c-25 3 -48 2 -51 -3 -3 -5 -17 -9 -32
-10 -24 0 -25 -1 -7 -9 16 -7 17 -9 3 -9 -10 -1 -15 -8 -14 -18 2 -10 -8 -35
-21 -55 -14 -20 -22 -41 -19 -46 7 -12 -18 -35 -27 -25 -4 3 -10 -8 -13 -25
-4 -22 -12 -32 -25 -32 -9 0 -24 -7 -33 -15 -8 -8 -24 -15 -35 -15 -12 0 -21
-4 -21 -10 0 -5 -9 -10 -20 -10 -13 0 -20 -7 -20 -20 0 -11 -7 -20 -15 -20
-17 0 -19 12 -5 26 7 7 1 11 -20 11 -21 0 -27 -4 -20 -11 17 -17 11 -26 -20
-26 -38 0 -41 -27 -5 -36 47 -12 58 -75 15 -89 -26 -8 -70 5 -70 20 0 7 -3 21
-7 31 -5 14 -2 13 15 -4 23 -23 56 -29 67 -13 3 5 -15 23 -40 40 -25 17 -45
25 -44 18 4 -17 -34 -77 -48 -77 -7 0 -17 -9 -23 -20 -8 -15 -21 -20 -50 -20
-22 0 -40 -4 -40 -8 0 -9 -130 -38 -162 -36 -10 0 -19 -4 -19 -10 -3 -21 -18
79 -18 122 -1 48 -4 50 -33 22 -16 -15 -19 -26 -14 -51 5 -29 5 -30 -12 -18
-9 8 -21 19 -25 24 -4 6 -7 -10 -5 -35 2 -54 -3 -64 -43 -84 l-30 -15 3 572 3
572 24 59 c27 69 94 141 143 155 52 15 455 14 464 -1z m2836 -59 c150 -23 197
-35 199 -52 1 -7 1 -31 0 -53 -6 -100 56 -148 226 -175 667 -106 1027 -159
1072 -159 50 0 57 3 97 44 28 27 44 52 44 68 0 13 6 33 14 43 14 19 17 19 187
-8 155 -24 180 -31 229 -61 63 -38 104 -92 122 -159 13 -50 26 38 -292 -1967
-39 -245 -168 -1055 -286 -1800 -118 -745 -220 -1389 -228 -1431 -18 -97 -42
-143 -103 -200 -62 -58 -99 -65 -248 -44 -224 32 -1438 226 -1447 231 -11 7
-8 1494 3 1494 3 0 403 -63 889 -140 486 -77 896 -140 912 -140 72 0 128 62
128 142 0 39 -6 54 -31 83 -17 20 -47 39 -67 45 -21 5 -239 41 -487 80 -1033
162 -1340 212 -1349 221 -5 5 -7 11 -4 14 3 3 444 -64 979 -149 536 -85 977
-151 982 -147 11 11 49 254 40 261 -5 4 -111 24 -238 43 -1069 169 -1749 278
-1756 283 -9 5 -13 267 -4 276 3 2 83 -8 177 -23 218 -36 226 -36 234 -4 3 14
4 31 1 39 -6 15 -2 14 -243 52 l-172 26 0 1542 c0 1485 1 1543 19 1584 28 65
78 122 123 143 53 24 116 24 278 -2z m-3586 -70 c-9 -29 -21 -105 -27 -168 -6
-64 -12 -118 -14 -119 -2 -2 -9 -1 -15 3 -12 7 -4 144 12 210 12 49 49 137 55
131 2 -2 -3 -28 -11 -57z m3129 -66 c20 -81 24 -218 7 -218 -10 0 -15 26 -18
95 -5 83 -10 119 -39 230 -4 17 0 14 15 -12 11 -21 27 -64 35 -95z m-3108
-100 c-3 -10 -5 -2 -5 17 0 19 2 27 5 18 2 -10 2 -26 0 -35z m3050 -15 c-2
-13 -4 -3 -4 22 0 25 2 35 4 23 2 -13 2 -33 0 -45z m-3107 -2764 c0 -2080 -3
-2605 -12 -2601 -10 3 -13 535 -15 2605 -3 2299 -1 2602 12 2602 13 0 15 -304
15 -2606z m3190 1 c0 -2309 -2 -2605 -15 -2605 -13 0 -15 296 -15 2605 0 2309
2 2605 15 2605 13 0 15 -296 15 -2605z m2717 2393 c-3 -8 -6 -5 -6 6 -1 11 2
17 5 13 3 -3 4 -12 1 -19z m-4417 -482 l0 -73 -32 -7 c-44 -9 -69 16 -66 65 1
21 5 36 9 33 4 -2 10 0 14 6 3 5 17 10 31 10 15 0 23 4 19 10 -9 15 3 43 15
35 5 -3 10 -39 10 -79z m-540 49 c0 -17 6 -25 18 -26 16 -1 16 -2 0 -6 -13 -3
-18 -14 -18 -38 0 -22 6 -38 18 -44 16 -9 16 -10 -1 -17 -25 -9 -35 4 -39 50
-3 35 -6 39 -31 41 -38 1 -45 -13 -13 -25 46 -17 23 -80 -24 -65 -27 8 -26 27
2 23 31 -4 33 17 3 30 -19 9 -25 18 -23 35 3 19 9 22 41 21 20 -1 38 3 38 7 1
5 3 14 4 19 1 6 3 12 4 15 4 17 21 1 21 -20z m110 -30 c18 -21 8 -50 -18 -51
-27 -2 -36 -9 -27 -23 3 -6 17 -8 31 -5 29 7 33 -12 4 -21 -28 -9 -70 20 -70
48 0 51 52 86 80 52z m162 2 c11 -18 10 -97 -2 -97 -5 0 -10 18 -10 41 0 33
-3 40 -17 37 -13 -2 -19 -14 -21 -41 -4 -50 -22 -47 -22 4 0 33 -3 40 -17 37
-12 -2 -19 -14 -21 -38 -6 -62 -22 -58 -22 6 l0 59 62 2 c39 1 65 -3 70 -10z
m106 -43 c3 -48 1 -52 -23 -58 -57 -15 -76 44 -22 69 31 15 31 15 4 11 -15 -2
-30 1 -34 6 -8 15 18 29 47 26 23 -3 25 -8 28 -54z m262 35 c16 -28 5 -51 -22
-49 -37 3 -41 1 -28 -15 7 -9 21 -13 31 -10 11 4 19 2 19 -3 0 -10 -23 -22
-40 -22 -18 0 -40 33 -40 60 0 53 58 82 80 39z m-770 -39 c0 -27 -4 -50 -10
-50 -5 0 -10 8 -10 19 0 10 -3 33 -6 50 -5 24 -3 31 10 31 13 0 16 -11 16 -50z
m585 -71 c-10 -15 23 -27 89 -31 40 -2 71 -9 74 -16 2 -6 9 -9 15 -7 7 3 18 1
26 -4 13 -8 13 -12 0 -27 -12 -16 -12 -17 4 -11 9 3 17 2 17 -3 0 -6 -177 -10
-480 -10 -420 0 -480 2 -480 15 0 8 4 15 9 15 5 0 12 9 16 20 5 17 9 18 26 7
16 -10 21 -9 29 2 10 17 17 18 260 27 225 8 214 8 275 -1 42 -6 54 -4 74 12
23 19 55 27 46 12z m-1145 -19 c0 -5 -4 -10 -10 -10 -5 0 -10 5 -10 10 0 6 5
10 10 10 6 0 10 -4 10 -10z m410 -40 c0 -5 -4 -10 -10 -10 -5 0 -10 5 -10 10
0 6 5 10 10 10 6 0 10 -4 10 -10z m2120 -205 c0 -8 -4 -15 -10 -15 -5 0 -7 7
-4 15 4 8 8 15 10 15 2 0 4 -7 4 -15z m-1137 -17 c14 -7 31 -22 36 -33 9 -18
10 -17 10 8 1 38 21 31 43 -14 20 -40 36 -169 21 -169 -5 0 -15 11 -21 25 -14
31 -40 32 -51 2 -11 -29 -37 -51 -51 -42 -5 3 -10 -1 -10 -10 0 -18 -13 -16
-79 11 -39 16 -65 18 -56 5 10 -17 -18 -25 -29 -9 -6 9 -24 16 -39 16 -16 0
-36 8 -46 18 -10 11 -33 32 -50 47 -18 16 -31 30 -29 32 2 2 32 -5 67 -15 75
-24 87 -25 72 -6 -9 10 -9 16 -1 21 8 5 8 11 -1 21 -9 11 -4 20 25 46 34 30
48 35 157 57 3 1 17 -5 32 -11z m-958 -19 c6 -18 9 -19 23 -6 24 21 55 28 72
17 8 -5 19 -5 25 0 12 10 89 -23 78 -33 -5 -6 18 -11 38 -9 9 2 20 -58 13 -69
-3 -5 -23 -18 -45 -29 -21 -11 -39 -23 -39 -26 0 -2 10 0 21 7 19 10 146 49
159 49 3 0 -19 -23 -48 -50 -33 -31 -63 -50 -77 -50 -29 0 -43 -19 -24 -31 12
-7 11 -9 -2 -9 -21 0 -39 20 -32 37 5 13 -37 0 -120 -38 -27 -12 -30 -11 -63
26 -19 21 -34 42 -34 47 0 5 -9 4 -20 -2 -15 -8 -19 -17 -15 -31 4 -13 2 -19
-9 -19 -10 0 -16 9 -16 21 0 16 -3 19 -13 11 -32 -27 -44 35 -17 93 7 17 14
34 14 38 2 16 30 26 43 15 9 -7 13 -7 13 0 0 12 50 62 62 62 4 0 10 -9 13 -21z
m432 -181 c-3 -7 -5 -2 -5 12 0 14 2 19 5 13 2 -7 2 -19 0 -25z m80 0 c-3 -8
-6 -5 -6 6 -1 11 2 17 5 13 3 -3 4 -12 1 -19z m68 -15 c-5 -23 -4 -25 9 -14 9
7 13 17 10 22 -8 14 20 11 55 -7 17 -8 29 -20 26 -25 -8 -12 -35 -12 -35 1 0
17 -25 11 -38 -10 -11 -19 -10 -20 33 -20 26 0 45 5 45 11 0 7 10 9 25 5 18
-5 25 -2 25 9 0 8 7 15 15 15 8 0 15 -9 15 -20 0 -18 5 -20 33 -16 39 7 84 10
114 8 15 -2 21 -7 17 -17 -4 -8 -9 -13 -13 -10 -28 17 48 -264 89 -330 10 -17
23 -48 29 -70 5 -22 14 -57 19 -77 5 -20 7 -39 4 -43 -8 -8 -1175 -5 -1187 3
-6 4 -10 12 -10 17 2 22 35 86 54 107 23 24 27 38 11 38 -20 0 -49 39 -43 59
5 21 36 37 51 27 5 -3 23 -1 40 3 26 8 30 7 25 -6 -5 -13 -3 -13 19 1 14 9 33
14 42 10 9 -3 16 -1 16 5 0 6 7 8 17 4 11 -4 14 -3 9 5 -4 7 -1 12 8 12 8 0
22 3 31 6 11 5 18 0 22 -15 3 -11 10 -21 15 -21 6 0 8 -9 5 -20 -3 -11 -1 -20
4 -20 5 0 9 9 9 21 0 12 5 19 13 16 6 -2 21 3 32 12 20 16 20 16 1 -6 -35 -42
-14 -104 33 -102 11 0 8 4 -6 11 -15 7 -23 20 -23 38 0 33 17 50 51 50 26 0
42 12 45 35 0 6 2 18 2 28 1 10 18 32 38 50 33 30 69 91 65 110 -1 5 3 6 8 3
5 -3 16 5 25 19 20 30 20 33 -1 38 -10 3 0 5 21 6 40 1 65 21 66 54 0 9 5 17
11 17 7 0 9 -10 4 -27z m895 -40 c0 -26 -20 -12 -35 23 -8 20 -15 39 -15 43 1
11 50 -54 50 -66z m-1125 47 c-3 -5 -11 -10 -16 -10 -6 0 -7 5 -4 10 3 6 11
10 16 10 6 0 7 -4 4 -10z m1055 -8 c0 -14 -40 -52 -55 -52 -24 0 -17 13 18 38
36 25 37 25 37 14z m-1855 -48 c-8 -20 -18 -61 -22 -91 -4 -42 -9 -53 -22 -51
-9 1 -22 -1 -28 -5 -25 -15 -13 24 30 104 43 81 69 107 42 43z m750 16 c3 -6
-1 -7 -9 -4 -18 7 -21 14 -7 14 6 0 13 -4 16 -10z m85 -5 c16 -19 0 -19 -26 0
-16 12 -16 14 -3 15 9 0 22 -7 29 -15z m-697 -146 c-4 -15 0 -27 12 -35 20
-15 16 -18 -9 -8 -16 6 -22 45 -9 57 10 11 11 8 6 -14z m108 -20 c-9 -22 -10
-22 -10 -3 -1 11 2 24 6 27 12 12 14 0 4 -24z m30 0 c-9 -22 -10 -22 -10 -3
-1 11 2 24 6 27 12 12 14 0 4 -24z m117 3 c5 -33 -24 -40 -51 -12 -14 16 -22
19 -25 11 -3 -8 2 -18 9 -23 11 -7 9 -8 -6 -6 -12 2 -21 12 -23 25 -3 18 3 22
30 26 52 6 63 3 66 -21z m-175 -23 c-13 -13 -43 0 -43 19 0 13 3 12 15 -4 14
-18 15 -18 22 6 6 21 8 22 11 6 2 -10 0 -22 -5 -27z m-243 1 c0 -5 -2 -10 -4
-10 -3 0 -8 5 -11 10 -3 6 -1 10 4 10 6 0 11 -4 11 -10z m2 -45 c16 -35 -1
-49 -31 -26 -16 12 -22 24 -18 35 10 24 36 19 49 -9z m8 -102 c0 -13 -6 -23
-13 -23 -22 0 -26 10 -15 42 8 22 13 26 19 16 5 -7 9 -23 9 -35z m290 7 c0
-11 -7 -20 -15 -20 -8 0 -15 -4 -15 -10 0 -5 9 -10 20 -10 13 0 20 -7 20 -20
0 -15 -7 -20 -25 -20 -23 0 -25 3 -24 48 0 26 3 41 6 35 2 -7 9 -13 15 -13 6
0 8 7 4 15 -3 8 -1 15 4 15 6 0 10 -9 10 -20z m42 -15 c-2 -19 -8 -35 -13 -35
-10 0 -12 53 -2 63 14 15 19 6 15 -28z m-105 -12 c-3 -10 -5 -4 -5 12 0 17 2
24 5 18 2 -7 2 -21 0 -30z m-266 -23 c20 -11 26 -54 9 -65 -6 -4 -7 -11 -4
-17 4 -6 0 -16 -10 -23 -15 -11 -15 -16 -1 -48 8 -20 19 -38 25 -42 11 -7 14
-174 2 -191 -4 -6 -15 -13 -24 -17 -10 -3 -18 -14 -18 -24 0 -15 -2 -16 -10
-3 -13 19 -10 440 2 440 5 0 18 -5 29 -10z m612 -200 c55 0 58 -1 55 -22 -4
-30 -58 -40 -58 -11 -1 17 -1 17 -11 0 -6 -10 -8 -25 -5 -33 3 -8 -1 -14 -9
-14 -8 0 -15 7 -15 15 0 8 -2 15 -4 15 -2 0 -11 3 -20 6 -12 4 -16 0 -16 -15
0 -12 -6 -21 -15 -21 -8 0 -15 4 -15 10 0 5 -13 7 -30 4 -24 -5 -30 -3 -30 10
0 10 5 14 10 11 6 -3 10 5 10 19 0 19 6 26 28 29 15 2 36 3 47 1 11 -2 46 -4
78 -4z m595 0 c29 0 33 -3 30 -22 -2 -16 -12 -24 -33 -28 l-30 -6 30 -12 c28
-10 25 -11 -31 -9 -51 1 -60 4 -57 18 7 25 -26 33 -35 9 l-8 -21 -21 21 c-21
19 -100 30 -89 12 3 -5 -13 -7 -36 -5 -35 3 -39 1 -28 -12 10 -13 9 -15 -8
-15 -15 0 -21 8 -24 35 -4 34 -3 35 29 35 18 0 33 -4 33 -10 0 -14 69 -11 110
5 20 8 56 12 85 9 28 -2 65 -4 83 -4z m270 1 c17 -2 15 -25 -6 -51 -15 -19
-30 -23 -107 -26 -66 -3 -85 -2 -73 6 9 6 44 11 78 11 45 1 60 5 60 16 0 11
-8 12 -37 7 -21 -3 -40 -6 -43 -6 -50 0 -60 3 -60 21 0 17 8 20 53 23 47 3
101 3 135 -1z m-1386 -10 c2 -6 19 -5 44 1 57 16 76 6 72 -34 -3 -32 -5 -33
-50 -34 -45 -2 -48 0 -48 23 0 13 -4 21 -10 18 -5 -3 -10 -15 -10 -26 0 -10
-4 -19 -10 -19 -5 0 -10 18 -10 40 0 36 13 55 22 31z m758 -8 c0 -17 -21 -27
-57 -28 -33 0 -54 22 -32 35 19 12 89 6 89 -7z m1760 -4 c0 -11 -4 -17 -10
-14 -5 3 -10 13 -10 21 0 8 5 14 10 14 6 0 10 -9 10 -21z m-2256 -11 c-9 -32
-11 -33 -39 -20 -33 15 -23 42 17 42 26 0 29 -3 22 -22z m1156 -18 c0 -5 -4
-10 -10 -10 -5 0 -10 5 -10 10 0 6 5 10 10 10 6 0 10 -4 10 -10z m-517 -17
c-13 -2 -35 -2 -50 0 -16 2 -5 4 22 4 28 0 40 -2 28 -4z m-785 -130 c-10 -2
-18 -14 -19 -26 0 -12 -3 -16 -6 -9 -8 20 5 42 24 41 17 -1 17 -2 1 -6z m378
-18 c4 -14 4 -29 0 -32 -3 -4 -6 0 -6 8 0 10 -11 15 -36 15 -27 0 -34 -4 -31
-15 3 -11 -4 -16 -22 -17 -20 -1 -26 4 -27 23 -1 12 2 23 8 23 5 0 7 -4 3 -9
-3 -5 -1 -12 4 -15 5 -3 12 1 15 10 4 11 14 15 32 11 16 -3 28 1 31 9 8 22 22
16 29 -11z m-226 -17 c0 -36 -4 -35 -14 5 -4 16 -2 27 4 27 5 0 10 -14 10 -32z
m-80 3 c0 -27 -19 -36 -37 -18 -18 18 -9 37 18 37 12 0 19 -7 19 -19z m49 -3
c0 -21 -1 -22 -8 -3 -8 19 -8 19 -19 0 -11 -19 -11 -19 -12 3 0 15 6 22 20 22
14 0 20 -6 19 -22z m65 7 c-4 -8 -7 -15 -9 -15 -2 0 -5 7 -9 15 -3 9 0 15 9
15 9 0 12 -6 9 -15z m53 -1 c3 -8 1 -20 -5 -26 -13 -13 -46 -2 -36 13 4 8 9 7
15 -2 7 -11 9 -10 9 3 0 9 -6 19 -12 21 -8 3 -6 6 5 6 10 1 20 -6 24 -15z
m193 -3 c0 -25 -12 -32 -30 -20 -12 7 -12 9 -1 9 7 0 11 6 7 15 -3 9 0 15 9
15 8 0 15 -9 15 -19z m-317 -208 c-7 -2 -19 -2 -25 0 -7 3 -2 5 12 5 14 0 19
-2 13 -5z m608 -222 c-8 -6 -11 -16 -6 -31 5 -15 4 -20 -4 -16 -19 12 -13 56
7 56 13 0 14 -2 3 -9z m103 -6 c-4 -8 -8 -15 -10 -15 -2 0 -4 7 -4 15 0 8 4
15 10 15 5 0 7 -7 4 -15z m-384 -36 c0 -4 -22 -7 -50 -7 -27 -1 -50 3 -50 8 0
12 32 28 47 23 6 -2 15 1 19 8 5 9 11 7 21 -6 7 -11 13 -22 13 -26z m394 -20
c-10 -16 -23 -9 -21 10 1 15 4 17 14 9 7 -5 10 -14 7 -19z m-284 -18 c0 -16
-13 -20 -32 -10 -10 5 -16 14 -13 19 6 9 45 1 45 -9z m58 -8 c2 -8 -5 -13 -17
-13 -12 0 -21 6 -21 16 0 18 31 15 38 -3z m367 7 c-3 -5 -10 -10 -16 -10 -5 0
-9 5 -9 10 0 6 7 10 16 10 8 0 12 -4 9 -10z m228 -17 c-7 -2 -19 -2 -25 0 -7
3 -2 5 12 5 14 0 19 -2 13 -5z m-666 -339 c-3 -3 -12 -4 -19 -1 -8 3 -5 6 6 6
11 1 17 -2 13 -5z m183 -14 c0 -5 -4 -10 -10 -10 -5 0 -10 5 -10 10 0 6 5 10
10 10 6 0 10 -4 10 -10z m-272 -38 c2 -7 -6 -12 -17 -12 -21 0 -27 11 -14 24
9 9 26 2 31 -12z m105 -8 c18 -9 39 -20 47 -24 9 -4 15 -21 15 -44 0 -37 -11
-48 -21 -21 -9 22 -24 18 -24 -5 0 -16 7 -20 34 -20 34 0 35 1 29 35 -4 27 -2
36 12 41 10 4 26 2 36 -4 11 -7 20 -8 24 -2 3 5 24 9 46 8 34 -1 39 -4 39 -25
0 -12 5 -23 10 -23 6 0 10 13 10 28 0 26 2 28 38 24 20 -2 43 -9 50 -14 8 -7
17 -7 27 2 23 19 45 4 45 -30 0 -25 -4 -30 -23 -30 -13 0 -28 5 -34 11 -7 7
-12 6 -16 -5 -5 -14 4 -16 67 -16 l73 0 -5 30 c-4 32 -27 37 -27 7 0 -9 -4
-17 -10 -17 -5 0 -10 12 -10 28 0 25 3 27 43 29 32 1 45 -3 52 -17 16 -30 12
-48 -12 -53 -13 -2 13 -5 56 -6 70 -1 78 1 61 13 -17 12 -18 18 -7 40 13 28
31 33 50 14 10 -10 15 -10 21 0 5 8 19 12 32 10 19 -2 24 -9 24 -33 0 -29 -2
-30 -42 -30 -23 0 -45 -3 -49 -7 -4 -5 38 -8 93 -8 l101 0 -11 31 -12 32 -3
-27 c-4 -33 -22 -34 -22 -1 0 14 -4 25 -10 25 -5 0 -10 -11 -10 -25 0 -14 -4
-25 -10 -25 -5 0 -10 16 -10 35 0 33 2 35 34 35 23 0 36 6 41 18 6 16 7 16 20
-2 11 -14 28 -19 67 -20 52 -1 53 -2 56 -33 2 -23 -1 -32 -15 -36 -10 -3 -3
-5 15 -6 24 -1 31 2 25 12 -27 43 -1 83 38 59 11 -7 20 -8 24 -2 9 15 42 12
49 -5 3 -8 1 -26 -4 -40 l-10 -25 83 -1 c72 -2 76 -3 32 -8 -62 -8 -861 -4
-892 4 -13 3 -23 1 -23 -5 0 -5 -4 -10 -10 -10 -5 0 -10 9 -10 21 0 11 -5 17
-10 14 -6 -4 -8 -11 -5 -16 7 -10 7 -10 -166 -13 l-116 -3 5 48 c4 46 4 47
-27 54 -22 5 -31 12 -31 26 0 23 22 24 63 3z m1181 -28 c-3 -8 -1 -17 5 -21
14 -8 14 -55 1 -55 -5 0 -10 11 -10 25 0 14 -4 25 -10 25 -5 0 -10 -11 -10
-25 0 -14 -4 -25 -10 -25 -17 0 -12 60 6 67 13 5 13 7 2 14 -9 6 -7 9 9 9 15
0 21 -5 17 -14z m-594 -16 c0 -5 -4 -10 -10 -10 -5 0 -10 -11 -10 -25 0 -14
-4 -25 -10 -25 -5 0 -10 16 -10 35 0 28 4 35 20 35 11 0 20 -4 20 -10z m674
-6 c13 -34 7 -54 -18 -54 -32 0 -39 12 -26 44 11 29 35 34 44 10z m-1561 -41
c-7 -2 -21 -2 -30 0 -10 3 -4 5 12 5 17 0 24 -2 18 -5z m282 -3 c3 -5 -1 -10
-9 -10 -9 0 -16 5 -16 10 0 6 4 10 9 10 6 0 13 -4 16 -10z m-102 -7 c-7 -2
-19 -2 -25 0 -7 3 -2 5 12 5 14 0 19 -2 13 -5z m267 -63 c0 6 21 10 50 9 28
-1 50 -6 50 -11 0 -8 -20 -11 -57 -8 -18 1 -23 -4 -23 -24 0 -20 -4 -24 -17
-19 -11 4 -14 3 -9 -5 4 -7 1 -12 -8 -12 -19 0 -22 6 -30 54 l-8 39 26 -17
c14 -9 26 -12 26 -6z m159 -44 c-9 -33 -12 -35 -25 -21 -25 25 -25 65 0 75 29
10 38 -8 25 -54z m1051 39 c0 -8 -4 -15 -10 -15 -5 0 -10 7 -10 15 0 8 5 15
10 15 6 0 10 -7 10 -15z m240 -134 l0 -119 33 -5 c17 -3 91 -13 162 -23 150
-19 158 -21 151 -33 -3 -4 -27 -5 -53 -1 -27 5 -88 13 -138 20 -49 6 -102 14
-117 16 -24 5 -28 2 -28 -16 0 -12 5 -18 10 -15 6 3 15 3 21 -1 6 -3 28 -8 48
-9 20 -1 81 -10 136 -20 55 -9 128 -19 162 -22 40 -3 64 -10 67 -20 10 -24
-20 -26 -130 -8 -61 10 -128 15 -159 12 -48 -5 -54 -3 -58 15 -5 16 -10 19
-24 12 -10 -4 -34 -8 -53 -8 -19 -1 -35 -5 -36 -11 -2 -22 9 -45 22 -46 8 -1
20 -2 27 -3 6 0 12 -14 12 -31 0 -21 -7 -33 -25 -42 -14 -7 -19 -13 -12 -13
18 0 15 -15 -12 -55 -17 -25 -26 -56 -31 -103 -6 -60 -34 -151 -35 -111 0 9
-7 22 -15 29 -13 11 -15 7 -16 -26 -1 -22 -1 -52 0 -69 1 -25 -1 -27 -8 -10
-5 11 -7 23 -5 27 3 4 0 9 -6 13 -6 4 -10 -13 -10 -44 0 -28 5 -51 10 -51 6 0
10 5 10 10 0 24 17 7 27 -27 10 -35 11 -36 12 -10 1 37 21 25 21 -14 0 -19 -5
-29 -15 -29 -8 0 -15 -4 -15 -10 0 -5 6 -10 14 -10 28 0 38 -86 11 -96 -8 -4
-15 -10 -15 -15 0 -4 6 -6 13 -3 16 6 34 -84 47 -234 5 -53 13 -117 17 -142
l8 -45 75 1 c41 1 114 5 161 9 57 5 88 4 93 -3 4 -7 21 -6 51 3 25 8 45 10 45
6 0 -20 -33 -72 -39 -62 -5 7 -13 4 -24 -9 -27 -32 -21 -48 23 -55 50 -8 51
-21 3 -28 -130 -19 -938 -115 -1098 -131 -50 -5 -65 -3 -90 14 -16 11 -37 20
-46 20 -23 0 -45 28 -32 41 5 5 70 13 144 17 126 7 134 8 132 27 -2 11 -6 57
-9 102 -7 82 -7 83 -34 83 -27 0 -27 -2 -34 -77 -6 -82 -28 -125 -41 -84 -4
13 -15 21 -30 21 -29 0 -41 46 -18 72 11 13 14 28 9 58 -4 24 -2 40 4 40 29 0
-20 71 -71 102 -20 12 -29 26 -29 43 0 18 -9 31 -30 43 -33 19 -41 56 -14 66
9 3 34 6 55 6 38 0 40 2 37 27 -3 24 -7 27 -47 28 -54 1 -59 11 -60 115 -1 83
0 87 47 119 17 12 32 29 32 36 0 10 9 13 31 10 19 -2 37 2 46 11 17 16 108 20
118 4 11 -18 25 -10 25 14 0 22 -3 23 -32 17 -50 -11 -111 -4 -120 14 -5 8
-15 15 -23 15 -7 0 -16 6 -18 13 -4 9 -8 8 -16 -3 -9 -13 -11 -13 -11 1 0 11
-12 19 -35 23 -19 4 -37 11 -40 16 -10 16 -14 194 -5 217 6 16 14 21 26 16 9
-3 20 0 25 8 6 10 9 10 9 2 0 -7 7 -13 15 -13 8 0 15 2 15 4 0 2 3 12 7 21 6
16 -14 17 -298 11 -368 -8 -349 -8 -374 -5 -11 2 -127 2 -257 1 l-238 -2 0
-35 c0 -32 2 -35 31 -35 17 0 28 4 24 10 -10 16 12 12 29 -6 12 -12 16 -37 16
-104 0 -99 -5 -120 -29 -120 -31 0 -94 -27 -103 -44 -5 -10 -19 -21 -31 -26
-22 -8 -22 -8 -2 -16 11 -4 26 -15 33 -23 10 -12 15 -13 18 -3 3 6 10 12 15
12 6 0 8 -4 5 -9 -6 -9 49 -61 64 -61 19 0 30 -71 30 -190 1 -321 3 -370 14
-370 7 0 11 38 11 121 -1 120 5 140 39 145 82 11 169 16 248 15 l96 -2 4 73
c3 40 5 183 6 318 1 135 1 251 2 259 0 11 3 11 16 0 12 -10 17 -10 23 0 11 17
21 -20 21 -78 0 -24 3 -41 7 -38 4 4 6 29 5 55 -3 57 9 82 31 63 13 -10 17 -9
26 6 8 13 10 -8 10 -82 -1 -65 -4 -91 -9 -75 -7 21 -15 12 -11 -12 0 -5 -2 -8
-7 -9 -4 0 -15 -2 -24 -4 -10 -2 -20 1 -24 6 -9 14 -24 10 -24 -7 0 -8 -5 -12
-10 -9 -6 4 -8 11 -5 16 4 5 1 9 -4 9 -6 0 -11 -18 -11 -40 0 -41 19 -57 21
-17 1 15 5 10 14 -18 10 -32 10 -41 -1 -45 -10 -4 -10 -8 0 -23 12 -16 14 -15
19 13 4 16 16 39 28 51 l22 22 13 -25 c9 -17 16 -91 21 -212 l8 -187 172 -2
c95 -2 176 -6 180 -10 4 -5 2 -16 -4 -26 -7 -10 -10 -27 -7 -37 8 -33 -8 -46
-43 -33 -57 19 -69 3 -76 -103 -5 -78 -9 -96 -27 -110 l-21 -17 26 -7 c19 -5
25 -12 23 -28 -3 -23 -44 -33 -143 -36 -68 -2 -30 -18 45 -19 30 -1 61 -5 68
-10 18 -11 -57 -21 -154 -21 -40 0 -75 -4 -78 -8 -10 -17 55 -31 169 -36 66
-2 125 -6 130 -7 6 -1 38 1 72 6 54 6 64 5 69 -10 5 -11 -4 -26 -27 -45 -42
-36 -52 -37 -73 -5 -23 36 -51 32 -62 -7 -14 -52 -94 -85 -247 -103 -103 -12
-138 -13 -213 -2 -56 8 -108 10 -139 5 -47 -7 -276 -11 -500 -8 -78 1 -107 5
-135 21 -19 10 -53 23 -75 27 l-40 8 0 291 c0 160 4 295 8 299 8 8 28 11 114
13 l51 1 6 108 c10 159 18 249 23 235 11 -30 23 -9 23 37 0 38 -4 50 -15 50
-13 0 -15 22 -15 141 l0 141 -52 -7 c-29 -3 -67 -11 -83 -16 l-30 -9 2 -80 c2
-64 -1 -80 -13 -80 -10 0 -14 13 -15 48 0 26 -2 59 -3 75 -1 15 3 27 8 27 6 0
5 5 -2 12 -8 8 -12 52 -12 130 0 104 2 119 17 124 10 3 31 12 46 21 16 8 39
12 52 9 13 -3 37 -3 54 0 25 5 30 10 26 25 -8 23 23 27 31 4 4 -10 10 -12 18
-7 6 5 25 12 41 16 17 4 38 9 48 12 10 3 16 1 15 -6 -4 -14 402 -14 416 0 6 6
1 8 -12 5 -12 -2 -22 0 -22 6 0 10 143 13 153 2 9 -9 250 -3 257 6 3 4 64 7
135 8 72 0 178 4 238 8 74 5 107 3 107 -4 0 -10 -56 -16 -102 -12 -9 1 -19 -3
-23 -9 -4 -6 17 -10 61 -10 56 0 72 4 91 22 l23 21 77 -19 c43 -10 83 -17 88
-15 6 2 21 5 35 7 14 2 17 1 8 -2 -10 -3 -18 -9 -18 -14 0 -11 78 -18 88 -8 4
4 23 3 42 -2 44 -13 53 -13 45 0 -3 6 -1 10 4 10 6 0 11 -4 11 -10 0 -5 11
-10 25 -10 13 0 30 -6 37 -13 10 -12 15 -12 26 0 15 15 58 18 66 4 4 -5 -3 -7
-14 -4 -11 3 -20 0 -20 -6 0 -6 13 -11 29 -11 16 0 41 -4 56 -10 18 -7 40 -5
80 7 53 17 79 40 31 27 -28 -7 -32 3 -35 97 -2 52 2 73 19 102 40 67 50 51 50
-82z m257 97 c-3 -8 -6 -5 -6 6 -1 11 2 17 5 13 3 -3 4 -12 1 -19z m-478 -45
c0 -25 -1 -26 -9 -8 -12 27 -12 35 0 35 6 0 10 -12 9 -27z m-1041 -42 c3 -21
-11 -40 -30 -41 -5 0 -8 16 -8 36 0 28 3 35 18 32 9 -2 19 -14 20 -27z m-206
-6 c3 -14 1 -28 -4 -31 -15 -10 -38 4 -38 24 0 39 35 45 42 7z m292 10 c3 -8
1 -15 -3 -15 -5 0 -11 7 -15 15 -3 8 -1 15 3 15 5 0 11 -7 15 -15z m46 6 c0
-6 -4 -13 -10 -16 -5 -3 -10 1 -10 9 0 9 5 16 10 16 6 0 10 -4 10 -9z m105 -1
c-28 -12 -37 -12 -30 0 3 6 16 10 28 9 21 0 21 -1 2 -9z m-572 -7 c-7 -2 -19
-2 -25 0 -7 3 -2 5 12 5 14 0 19 -2 13 -5z m57 -3 c0 -5 -6 -10 -14 -10 -8 0
-18 5 -21 10 -3 6 3 10 14 10 12 0 21 -4 21 -10z m360 -42 c0 -12 -3 -18 -7
-14 -11 10 -12 36 -2 36 5 0 9 -10 9 -22z m-94 -25 c-9 -9 -226 -12 -226 -3 0
13 32 20 120 22 63 3 118 -8 106 -19z m1724 -135 c0 -14 -5 -15 -32 -7 -18 5
-34 9 -36 9 -2 0 -1 3 1 8 3 4 19 7 36 7 22 0 31 -5 31 -17z m-370 -167 c0 -6
-4 -13 -10 -16 -5 -3 -10 1 -10 9 0 9 5 16 10 16 6 0 10 -4 10 -9z m-995 -66
c0 -5 -3 -13 -7 -16 -5 -3 -12 -25 -16 -50 -8 -44 -8 -44 -15 30 -3 41 -4 78
-1 83 6 10 39 -30 39 -47z m-873 -7 c-8 -8 -9 -4 -5 13 4 13 8 18 11 10 2 -7
-1 -18 -6 -23z m1861 15 c-7 -2 -19 -2 -25 0 -7 3 -2 5 12 5 14 0 19 -2 13 -5z
m97 -112 c0 -5 -6 -11 -12 -14 -18 -6 -39 3 -32 14 7 12 44 12 44 0z m-90 -61
c0 -5 -11 -10 -25 -10 -14 0 -25 5 -25 10 0 6 11 10 25 10 14 0 25 -4 25 -10z
m246 -23 c6 -20 7 -20 20 -2 8 10 16 16 20 13 8 -9 23 -78 24 -107 0 -21 -3
-23 -30 -17 -31 6 -41 -9 -19 -31 7 -7 1 -16 -23 -31 -29 -19 -31 -22 -10 -22
12 0 22 -4 22 -10 0 -15 28 0 33 18 3 10 5 3 6 -14 1 -20 -5 -34 -14 -38 -21
-8 -19 -32 5 -56 11 -11 20 -27 20 -35 0 -8 4 -15 9 -15 5 0 8 11 7 24 -3 20
2 25 25 28 l29 5 0 -179 c0 -112 -4 -178 -10 -178 -5 0 -10 -11 -10 -25 0 -14
5 -25 10 -25 6 0 10 -11 10 -25 0 -22 -4 -25 -39 -25 l-38 0 -7 50 c-4 28 -11
50 -16 50 -17 0 -11 18 8 24 15 5 18 20 20 104 2 53 7 99 12 100 13 5 13 42 0
42 -5 0 -10 -7 -10 -15 0 -8 -7 -15 -15 -15 -11 0 -15 -12 -15 -51 0 -33 -4
-48 -11 -44 -5 4 -48 6 -95 6 l-84 -1 0 79 c0 43 -3 93 -6 110 l-6 31 91 0
c84 0 91 1 91 20 0 18 -7 20 -77 21 -43 1 -83 1 -89 0 -17 -2 -24 34 -24 121
l0 77 88 3 c69 2 87 6 87 18 0 8 -10 16 -22 18 -25 4 -31 18 -10 25 19 7 36
-3 43 -26z m-1676 -36 c0 -6 -4 -13 -10 -16 -5 -3 -10 1 -10 9 0 9 5 16 10 16
6 0 10 -4 10 -9z m1448 -196 c-9 -9 -36 6 -42 22 -4 9 1 28 11 42 l17 26 10
-43 c5 -23 7 -45 4 -47z m17 -322 c3 -101 3 -183 -2 -183 -4 0 -9 42 -11 93
-3 66 -8 94 -18 100 -8 4 -14 15 -14 24 0 15 -2 14 -14 -2 -12 -17 -14 -15
-20 19 -9 46 -1 58 30 50 23 -6 24 -5 24 50 0 56 0 56 -30 56 -31 0 -42 22
-18 36 7 4 8 3 4 -4 -5 -8 0 -12 13 -12 15 0 21 6 21 23 0 13 3 27 8 31 11 11
19 -76 27 -281z m-2475 124 c0 -33 -4 -44 -15 -44 -12 0 -14 8 -10 35 10 65
25 70 25 9z m2643 -188 c14 -10 -1 -29 -24 -29 -28 0 -36 28 -13 45 14 10 20
10 23 2 2 -7 8 -15 14 -18z m-896 -201 c-3 -8 -6 -5 -6 6 -1 11 2 17 5 13 3
-3 4 -12 1 -19z m1043 -156 c0 -17 -70 -43 -145 -53 -44 -6 -84 -13 -89 -16
-5 -3 -56 -5 -115 -5 -58 1 -122 -2 -141 -7 -32 -8 -31 -9 25 -11 85 -2 45
-16 -102 -34 -129 -16 -255 -22 -378 -18 -100 4 -73 19 41 23 44 2 92 9 107
17 31 16 54 19 460 67 159 18 291 36 295 39 8 9 42 7 42 -2z m-1490 -166 c0
-2 -7 -6 -15 -10 -8 -3 -15 -1 -15 4 0 6 7 10 15 10 8 0 15 -2 15 -4z m-57
-13 c-7 -2 -19 -2 -25 0 -7 3 -2 5 12 5 14 0 19 -2 13 -5z m752 -2 c22 -5 38
-9 35 -10 -3 -1 -60 -4 -127 -8 -85 -4 -123 -3 -123 5 0 6 10 13 23 15 39 8
151 6 192 -2z m1000 -203 c-10 -111 -25 -178 -52 -233 -37 -75 -42 -74 -16 5
14 41 29 120 35 186 9 85 15 114 25 114 11 0 13 -14 8 -72z m-3128 -75 c-3
-10 -5 -2 -5 17 0 19 2 27 5 18 2 -10 2 -26 0 -35z m2336 -10 c-13 -2 -33 -2
-45 0 -13 2 -3 4 22 4 25 0 35 -2 23 -4z m-83 -34 c50 -6 88 -14 86 -17 -8 -7
-317 19 -346 29 -32 12 135 4 260 -12z m258 14 c-10 -2 -28 -2 -40 0 -13 2 -5
4 17 4 22 1 32 -1 23 -4z m-468 -44 c64 -11 70 -14 46 -20 -16 -5 -79 -4 -140
1 -139 12 -176 18 -176 31 0 12 168 5 270 -12z m1546 -44 c1070 -171 1043
-167 1134 -160 65 4 81 3 67 -6 -11 -6 -53 -13 -95 -16 -65 -4 -180 11 -712
96 -349 56 -683 109 -742 118 -60 9 -108 21 -108 25 0 14 38 9 456 -57z
m-2007 26 c9 -6 -3 -11 -37 -16 -58 -8 -96 5 -47 16 44 10 68 10 84 0z m108
-23 c12 2 70 -2 130 -8 59 -6 137 -13 173 -14 114 -6 210 -18 210 -27 0 -12
-115 -11 -225 2 -49 6 -121 12 -160 14 -94 4 -169 15 -173 25 -2 5 -11 6 -20
3 -13 -4 -12 -2 3 10 15 12 22 13 30 4 6 -7 20 -11 32 -9z m689 12 c24 0 44
-4 44 -9 0 -16 -35 -18 -120 -6 -64 9 -78 13 -55 17 17 3 43 4 59 2 16 -2 48
-4 72 -4z m-1041 -40 c25 -6 20 -8 -27 -9 -33 0 -58 3 -58 9 0 11 40 11 85 0z
m-145 -10 c0 -5 -7 -10 -16 -10 -8 0 -12 5 -9 10 3 6 10 10 16 10 5 0 9 -4 9
-10z m427 -26 c-3 -3 -12 -4 -19 -1 -8 3 -5 6 6 6 11 1 17 -2 13 -5z m-640
-11 c-16 -3 -25 -9 -21 -15 5 -8 -3 -9 -26 -5 -18 4 -44 8 -59 9 -31 1 60 15
104 15 30 0 30 0 2 -4z m764 -3 c19 0 29 -5 29 -15 0 -13 -9 -15 -52 -10 -73
9 -89 16 -58 25 14 5 31 6 38 4 8 -2 27 -4 43 -4z m-568 -19 c5 -5 4 -12 -2
-15 -6 -4 -11 -2 -11 5 0 7 -13 10 -35 7 -19 -2 -35 0 -35 4 0 4 -12 3 -26 -2
-35 -14 -39 -13 -23 6 11 13 24 15 69 10 30 -4 59 -11 63 -15z m57 -11 c0 -5
-2 -10 -4 -10 -2 0 -12 -3 -20 -6 -12 -5 -15 -2 -10 10 7 17 34 22 34 6z
m-450 -22 l65 -12 -50 -9 c-50 -9 -278 7 -300 21 -15 10 90 21 160 16 33 -2
89 -9 125 -16z m127 -24 c-3 -3 -12 -4 -19 -1 -8 3 -5 6 6 6 11 1 17 -2 13 -5z
m-645 -141 c58 -17 151 -18 1258 -18 966 0 1204 3 1240 13 25 8 59 16 75 18
54 8 -47 -34 -111 -45 -39 -7 -441 -11 -1208 -11 -1208 0 -1234 1 -1313 44
-37 20 -18 20 59 -1z"/>
<path d="M2134 5846 c-131 -59 -91 -256 52 -256 57 0 73 7 67 31 -4 15 -14 19
-49 19 -59 0 -84 25 -84 84 0 58 36 90 92 83 31 -4 38 -2 44 15 3 11 3 22 0
25 -12 13 -93 12 -122 -1z"/>
<path d="M1812 5744 c3 -102 4 -107 31 -130 42 -36 109 -34 148 5 28 29 29 32
29 131 l0 101 -27 -3 c-28 -3 -28 -3 -33 -97 -4 -80 -8 -96 -25 -107 -18 -12
-24 -11 -43 2 -20 14 -22 24 -22 110 l0 94 -31 0 -31 0 4 -106z"/>
<path d="M422 5415 c0 -16 2 -22 5 -12 2 9 2 23 0 30 -3 6 -5 -1 -5 -18z"/>
<path d="M421 5344 c0 -11 3 -14 6 -6 3 7 2 16 -1 19 -3 4 -6 -2 -5 -13z"/>
<path d="M1900 5260 c0 -5 7 -7 15 -4 8 4 15 8 15 10 0 2 -7 4 -15 4 -8 0 -15
-4 -15 -10z"/>
<path d="M1820 5231 c0 -12 5 -21 10 -21 6 0 10 6 10 14 0 8 -4 18 -10 21 -5
3 -10 -3 -10 -14z"/>
<path d="M2205 5180 c3 -5 15 -10 26 -10 10 0 19 5 19 10 0 6 -12 10 -26 10
-14 0 -23 -4 -19 -10z"/>
<path d="M700 5140 c0 -5 5 -10 10 -10 6 0 10 5 10 10 0 6 -4 10 -10 10 -5 0
-10 -4 -10 -10z"/>
<path d="M4707 5873 c-3 -5 -8 -38 -12 -74 -6 -60 -5 -69 14 -88 25 -25 68
-27 98 -6 15 10 24 33 32 78 14 81 14 77 -8 77 -15 0 -20 -10 -26 -52 -10 -69
-21 -90 -48 -86 -21 3 -22 7 -19 81 2 62 0 77 -12 77 -8 0 -17 -3 -19 -7z"/>
<path d="M4885 5814 c-25 -27 -33 -73 -19 -109 14 -36 114 -62 114 -30 0 9 -9
15 -23 15 -51 0 -76 70 -37 105 14 12 28 16 49 12 33 -7 53 10 30 24 -8 5 -31
9 -52 9 -28 0 -44 -7 -62 -26z"/>
<path d="M3375 5579 c-4 -17 -4 -33 -1 -36 9 -9 12 -2 19 35 8 41 -9 42 -18 1z"/>
<path d="M3417 5595 c-4 -9 -7 -29 -7 -43 1 -24 2 -25 13 -10 12 15 14 15 24
0 13 -21 19 -16 28 26 4 20 3 32 -4 32 -6 0 -11 -8 -11 -17 0 -15 -4 -14 -19
6 -16 21 -19 21 -24 6z"/>
<path d="M3496 5574 c-9 -24 -7 -54 4 -54 6 0 10 16 10 35 0 38 -4 44 -14 19z"/>
<path d="M3534 5566 c-10 -26 1 -51 24 -54 12 -2 22 1 22 7 0 6 -7 8 -15 5
-11 -5 -15 1 -15 20 0 29 9 33 29 14 11 -11 13 -10 9 2 -6 20 -47 25 -54 6z"/>
<path d="M3607 5538 c-4 -31 -2 -46 7 -37 10 11 17 69 8 69 -5 0 -12 -15 -15
-32z"/>
<path d="M3655 5554 c-19 -19 -16 -43 7 -57 20 -13 48 6 48 34 0 28 -35 43
-55 23z m35 -23 c0 -23 -16 -36 -25 -21 -9 14 1 40 15 40 5 0 10 -9 10 -19z"/>
<path d="M4167 5478 c-25 -14 -22 -57 6 -67 26 -10 37 2 37 40 0 30 -18 42
-43 27z m29 -19 c3 -6 -1 -18 -10 -27 -15 -15 -16 -14 -16 11 0 27 13 36 26
16z"/>
<path d="M4236 5472 c-3 -3 -6 -21 -6 -41 0 -27 3 -32 10 -21 8 13 11 12 23
-4 13 -18 14 -17 20 14 4 17 5 36 2 40 -6 10 -42 19 -49 12z m34 -22 c0 -5 -4
-10 -10 -10 -5 0 -10 5 -10 10 0 6 5 10 10 10 6 0 10 -4 10 -10z"/>
<path d="M4647 5378 c-5 -37 0 -49 12 -29 6 10 10 9 15 -5 6 -16 8 -16 21 2
14 19 14 19 15 -1 0 -17 2 -17 10 -5 13 19 13 60 0 60 -5 0 -15 -10 -22 -22
l-12 -23 -6 24 c-9 37 -27 36 -33 -1z"/>
<path d="M4746 5358 c-6 -28 -2 -48 8 -37 10 11 17 69 8 69 -5 0 -12 -14 -16
-32z"/>
<path d="M4820 5361 c-13 -25 -13 -27 5 -45 9 -8 22 -13 30 -10 22 9 18 23 -5
17 -15 -4 -20 0 -20 15 0 24 16 37 25 22 3 -5 11 -10 17 -10 7 0 6 6 -2 15
-17 21 -37 19 -50 -4z"/>
<path d="M4898 5364 c-14 -14 -8 -64 7 -71 19 -7 34 5 18 15 -6 4 -13 20 -15
35 -1 16 -6 25 -10 21z"/>
<path d="M4967 5331 c-21 -36 -21 -45 -1 -37 9 4 23 1 30 -5 11 -9 14 -7 14 7
0 27 -11 64 -19 64 -4 0 -14 -13 -24 -29z"/>
<path d="M5053 5343 c-19 -7 -16 -30 5 -43 15 -10 14 -11 -6 -6 -15 3 -22 0
-19 -7 5 -16 37 -21 50 -8 7 7 5 17 -8 31 -16 18 -17 20 -2 14 9 -3 17 -2 17
4 0 12 -21 21 -37 15z"/>
<path d="M5110 5323 c0 -10 -3 -28 -6 -40 -6 -20 -2 -23 22 -23 27 0 27 1 8
15 -19 14 -19 14 1 15 11 1 14 4 8 7 -19 7 -16 23 5 23 14 0 15 2 2 10 -23 15
-40 12 -40 -7z"/>
<path d="M5440 5245 c0 -33 1 -34 18 -17 10 9 14 19 10 20 -14 6 -9 20 10 25
10 3 6 5 -10 6 -25 1 -28 -2 -28 -34z"/>
<path d="M5510 5255 c-19 -23 -8 -50 22 -53 19 -2 28 2 33 18 12 39 -29 66
-55 35z m37 -29 c-4 -9 -11 -16 -17 -16 -11 0 -14 33 -3 43 11 11 26 -10 20
-27z"/>
<path d="M5586 5244 c-9 -24 -7 -54 4 -54 6 0 10 5 10 12 0 6 6 4 13 -7 13
-17 14 -16 20 15 4 17 4 36 1 41 -9 15 -41 10 -48 -7z m44 -8 c0 -11 -19 -15
-25 -6 -3 5 1 10 9 10 9 0 16 -2 16 -4z"/>
<path d="M5677 5238 c-19 -10 -23 -53 -7 -63 22 -14 50 6 50 35 0 31 -17 43
-43 28z m27 -16 c2 -4 1 -14 -4 -21 -10 -17 -31 -5 -23 14 6 16 19 20 27 7z"/>
<path d="M3487 4958 c-22 -35 -94 -515 -80 -536 13 -22 47 -27 61 -10 6 8 27
115 47 238 19 123 39 227 43 231 4 3 99 -9 212 -27 241 -40 274 -40 278 -3 2
14 -3 31 -10 36 -7 6 -116 27 -243 47 -126 20 -244 39 -262 42 -26 5 -34 2
-46 -18z"/>
<path d="M4886 4734 c-11 -29 -6 -44 17 -54 12 -6 120 -25 240 -44 121 -19
221 -36 223 -38 2 -2 -13 -108 -33 -235 -31 -193 -35 -234 -24 -247 17 -20 45
-21 60 -2 15 18 94 512 86 537 -8 23 1 21 -271 64 -250 40 -289 42 -298 19z"/>
<path d="M3701 4681 c-9 -6 -25 -80 -47 -217 -37 -229 -37 -233 -25 -252 9
-15 424 -85 458 -77 13 3 25 15 28 28 19 91 65 421 60 436 -7 23 -3 22 -247
61 -206 33 -207 33 -227 21z m226 -106 c86 -14 158 -27 160 -29 4 -3 -46 -318
-51 -323 -3 -4 -319 46 -323 51 -2 2 8 74 22 160 14 86 25 159 25 161 0 7 -4
7 167 -20z"/>
<path d="M3838 4487 c-17 -17 -32 -105 -22 -130 7 -18 19 -23 85 -32 58 -8 74
6 83 73 10 79 5 85 -85 97 -34 5 -50 3 -61 -8z"/>
<path d="M4281 4591 c-13 -8 -30 -73 -31 -118 0 -12 9 -27 20 -33 31 -16 58 4
65 48 3 20 8 47 11 59 7 37 -33 64 -65 44z"/>
<path d="M4681 4508 c-4 -13 -22 -117 -40 -232 -28 -176 -31 -210 -19 -222 15
-15 440 -86 463 -77 19 7 18 6 55 235 34 209 35 231 18 246 -14 10 -388 72
-439 72 -22 0 -32 -6 -38 -22z m246 -91 c79 -13 145 -26 149 -29 5 -6 -41
-317 -48 -323 -5 -5 -313 47 -320 53 -4 4 4 74 17 157 14 82 25 153 25 157 0
12 21 10 177 -15z"/>
<path d="M4822 4319 c-5 -13 -12 -45 -16 -70 -8 -55 1 -65 70 -78 70 -14 89 1
99 75 9 71 -1 82 -82 90 -59 6 -63 6 -71 -17z"/>
<path d="M4432 4482 c-6 -4 -18 -39 -25 -78 -7 -38 -17 -68 -23 -67 -5 0 -39
4 -76 8 -61 7 -67 5 -77 -14 -12 -21 0 -61 17 -61 4 0 47 -7 96 -15 114 -19
121 -15 136 76 12 69 13 71 38 66 15 -3 35 -1 44 4 23 13 23 56 0 68 -27 14
-115 23 -130 13z"/>
<path d="M4292 4158 c-5 -7 -17 -58 -26 -112 -10 -55 -19 -103 -21 -106 -3 -4
-16 -5 -30 -2 -31 6 -55 -13 -55 -44 0 -30 6 -33 108 -50 113 -18 119 -18 132
6 15 28 -2 56 -41 64 -26 5 -30 9 -26 28 3 13 9 47 13 76 4 30 13 56 20 59 8
3 39 1 69 -4 75 -13 114 12 86 56 -9 14 -128 39 -187 40 -17 1 -36 -5 -42 -11z"/>
<path d="M3603 4098 c-6 -7 -20 -74 -31 -148 l-22 -135 21 -17 c12 -10 25 -18
29 -18 21 0 39 35 45 90 4 33 11 62 16 65 5 3 35 1 67 -5 67 -12 88 -7 98 23
10 31 -25 53 -96 61 -61 7 -62 8 -57 34 3 15 1 35 -4 44 -11 21 -52 24 -66 6z"/>
<path d="M4512 3958 c-6 -7 -14 -41 -17 -75 -7 -56 -6 -62 14 -72 35 -19 58 1
69 61 6 38 5 59 -3 73 -15 24 -48 31 -63 13z"/>
<path d="M4003 3948 c-4 -7 -13 -40 -18 -73 -10 -58 -11 -60 -40 -60 -17 1
-49 4 -72 8 -57 10 -89 -22 -64 -62 6 -9 73 -24 191 -43 195 -32 210 -30 210
18 0 28 -20 38 -97 49 -59 8 -60 10 -43 95 5 27 4 52 -1 62 -11 21 -54 24 -66
6z"/>
<path d="M4763 3918 c-6 -7 -19 -62 -29 -121 l-17 -109 -31 6 c-115 19 -114
19 -129 -6 -9 -13 -19 -49 -22 -81 -7 -57 -8 -59 -34 -54 -35 7 -61 -9 -61
-38 0 -30 21 -42 86 -50 62 -9 71 1 85 86 6 35 11 65 13 66 1 1 33 -2 70 -8
89 -14 94 -9 115 123 15 98 17 103 41 104 45 2 49 4 60 23 7 15 6 24 -8 39
-22 26 -123 40 -139 20z"/>
<path d="M5000 3795 c-7 -9 -18 -44 -24 -78 -11 -60 -13 -62 -41 -60 -36 3
-55 -12 -55 -43 0 -28 20 -40 86 -49 37 -5 53 -3 61 7 9 10 43 169 43 200 0
11 -31 38 -44 38 -8 0 -19 -7 -26 -15z"/>
<path d="M3541 3686 c-7 -8 -28 -113 -47 -233 -35 -214 -35 -218 -16 -233 12
-10 99 -28 237 -50 202 -31 219 -32 230 -17 12 17 75 386 75 440 0 19 -7 30
-22 37 -21 8 -401 70 -432 70 -8 0 -19 -6 -25 -14z m226 -101 c86 -14 159 -27
161 -30 5 -5 -40 -302 -48 -315 -4 -7 -63 -1 -166 16 -87 14 -160 26 -160 27
-3 4 50 327 53 327 2 0 74 -11 160 -25z"/>
<path d="M3682 3497 c-7 -8 -16 -36 -21 -63 -14 -69 2 -90 73 -98 31 -4 60 -5
65 -1 13 8 31 72 31 112 0 38 -15 48 -86 58 -38 5 -53 3 -62 -8z"/>
<path d="M4301 3651 c-12 -12 -21 -40 -26 -80 -8 -69 -6 -68 -96 -51 -71 14
-87 -2 -91 -84 -2 -46 1 -61 15 -70 23 -15 47 1 61 40 10 26 14 29 46 24 32
-5 35 -8 40 -45 4 -34 9 -40 31 -43 14 -2 30 3 36 10 13 16 55 276 47 289 -3
5 -14 14 -24 19 -15 8 -24 6 -39 -9z"/>
<path d="M4696 3498 c-11 -15 -12 -26 -6 -39 12 -21 21 -24 120 -39 119 -18
111 -11 108 -97 -3 -63 0 -77 15 -87 34 -22 51 4 68 105 23 130 24 128 -137
156 -161 27 -150 27 -168 1z"/>
<path d="M4512 3371 c-7 -4 -16 -21 -21 -37 -6 -25 -12 -29 -38 -26 -40 4 -52
-13 -65 -93 -10 -59 -13 -66 -31 -61 -12 3 -63 11 -114 17 -83 11 -96 11 -109
-3 -18 -18 -11 -53 11 -62 8 -3 74 -15 146 -27 155 -25 155 -25 173 73 11 57
14 63 35 61 34 -4 59 13 65 47 3 16 8 43 12 59 8 43 -29 74 -64 52z"/>
<path d="M5162 3253 c-5 -10 -25 -116 -43 -237 -20 -128 -38 -220 -45 -223 -7
-2 -112 11 -234 31 -122 19 -228 32 -235 30 -34 -13 -28 -71 8 -79 52 -11 472
-75 497 -75 15 0 32 6 38 13 5 6 28 128 51 271 32 197 39 262 30 272 -16 20
-57 17 -67 -3z"/>
<path d="M4748 3250 c-10 -7 -20 -35 -28 -80 l-12 -69 -35 1 c-35 1 -53 -13
-53 -43 0 -27 20 -35 135 -53 61 -9 122 -19 136 -22 27 -5 59 16 59 39 -1 28
-22 41 -87 51 -37 6 -68 16 -68 21 1 6 4 39 9 74 7 57 6 66 -10 78 -21 15 -24
15 -46 3z"/>
<path d="M1561 5227 c-13 -13 -15 -54 -2 -62 13 -7 41 23 41 45 0 22 -23 33
-39 17z"/>
<path d="M1140 5220 c0 -5 9 -10 20 -10 11 0 20 5 20 10 0 6 -9 10 -20 10 -11
0 -20 -4 -20 -10z"/>
<path d="M1416 5187 c-11 -8 -15 -17 -10 -20 14 -8 37 8 33 22 -3 8 -10 8 -23
-2z"/>
<path d="M1670 5225 c-10 -13 -9 -15 9 -15 11 0 21 4 21 9 0 18 -18 21 -30 6z"/>
<path d="M1100 4255 c0 -8 8 -15 18 -15 13 0 14 2 3 9 -11 7 -11 9 0 14 10 4
9 6 -3 6 -10 1 -18 -6 -18 -14z"/>
<path d="M750 4250 c-24 -8 -23 -8 8 -9 20 -1 31 3 27 9 -3 6 -7 10 -8 9 -1
-1 -13 -5 -27 -9z"/>
<path d="M977 4209 c7 -7 15 -10 18 -7 3 3 -2 9 -12 12 -14 6 -15 5 -6 -5z"/>
<path d="M1015 4200 c3 -5 8 -10 11 -10 2 0 4 5 4 10 0 6 -5 10 -11 10 -5 0
-7 -4 -4 -10z"/>
<path d="M735 4439 c-10 -15 3 -25 16 -12 7 7 7 13 1 17 -6 3 -14 1 -17 -5z"/>
<path d="M620 4210 c0 -5 5 -10 10 -10 6 0 10 5 10 10 0 6 -4 10 -10 10 -5 0
-10 -4 -10 -10z"/>
<path d="M1465 3970 c-3 -5 1 -10 10 -10 9 0 13 5 10 10 -3 6 -8 10 -10 10 -2
0 -7 -4 -10 -10z"/>
<path d="M562 3788 c6 -18 28 -21 28 -4 0 9 -7 16 -16 16 -9 0 -14 -5 -12 -12z"/>
<path d="M1100 2820 c0 -5 7 -10 15 -10 8 0 15 5 15 10 0 6 -7 10 -15 10 -8 0
-15 -4 -15 -10z"/>
<path d="M1250 2795 c0 -17 9 -19 28 -6 11 7 10 10 -3 15 -23 9 -25 8 -25 -9z"/>
<path d="M1390 2795 c0 -8 5 -15 10 -15 6 0 10 7 10 15 0 8 -4 15 -10 15 -5 0
-10 -7 -10 -15z"/>
<path d="M1730 2795 c0 -8 9 -15 20 -15 24 0 27 15 4 24 -22 9 -24 8 -24 -9z"/>
<path d="M1796 2802 c-3 -6 -1 -14 5 -17 15 -10 25 3 12 16 -7 7 -13 7 -17 1z"/>
<path d="M1952 2780 c2 -26 6 -30 33 -30 29 0 31 2 27 30 -5 36 -22 40 -22 5
0 -14 -4 -25 -10 -25 -5 0 -10 11 -10 25 0 14 -5 25 -10 25 -6 0 -9 -13 -8
-30z"/>
<path d="M1219 2789 c0 -2 -2 -12 -4 -21 -2 -13 3 -18 17 -18 18 0 19 2 7 18
-7 9 -15 19 -16 21 -2 2 -3 2 -4 0z"/>
<path d="M2130 2765 c-11 -13 -8 -15 15 -15 23 0 26 2 15 15 -7 8 -14 15 -15
15 -1 0 -8 -7 -15 -15z"/>
<path d="M1275 2760 c-4 -6 6 -10 22 -10 22 0 25 2 13 10 -19 12 -27 12 -35 0z"/>
<path d="M1254 2442 c-12 -2 -24 -12 -27 -24 -5 -19 -7 -19 -22 -4 -18 18 -13
17 -190 21 -87 1 -142 -2 -167 -11 -23 -8 -40 -9 -43 -3 -4 5 -25 8 -48 7 -40
-1 -40 -1 -7 -5 19 -3 47 -14 62 -25 23 -16 32 -17 43 -8 9 7 26 10 41 6 17
-5 35 -1 50 9 14 9 29 13 34 10 6 -4 42 -7 81 -8 86 -3 112 -24 102 -82 -3
-19 -2 -35 1 -35 18 0 34 29 32 61 l-1 34 60 2 c33 1 72 2 86 2 22 1 27 5 25
25 -1 21 -6 25 -46 28 -25 2 -55 2 -66 0z"/>
<path d="M1490 2441 c-86 -8 -102 -15 -99 -44 3 -40 -1 -46 -31 -62 -16 -9
-30 -22 -30 -29 0 -22 -29 -41 -42 -28 -16 16 -28 15 -28 -3 0 -9 7 -18 15
-21 8 -4 12 -10 9 -15 -10 -16 74 -10 90 7 18 18 21 34 6 34 -5 0 -10 -8 -11
-17 0 -13 -3 -12 -10 6 -18 45 23 67 56 31 19 -21 29 -19 31 8 1 10 2 27 3 40
1 16 7 22 23 22 21 0 21 0 2 14 -32 24 -4 36 92 38 112 2 184 -6 194 -22 5 -8
10 -9 14 -2 11 17 -24 42 -58 42 -18 0 -60 2 -92 4 -32 2 -93 1 -134 -3z"/>
<path d="M2148 2423 c7 -3 16 -2 19 1 4 3 -2 6 -13 5 -11 0 -14 -3 -6 -6z"/>
<path d="M2205 2411 c-6 -11 -3 -12 73 -17 24 -2 50 -8 57 -14 8 -7 19 -9 25
-5 19 12 0 24 -48 30 -26 3 -59 9 -74 11 -14 3 -29 0 -33 -5z"/>
<path d="M331 2371 c-14 -4 -26 -12 -29 -19 -4 -13 10 -16 22 -4 4 4 22 12 39
19 35 13 10 16 -32 4z"/>
<path d="M1527 2337 c-3 -8 4 -28 15 -46 15 -24 23 -29 33 -21 7 6 17 10 21 9
28 -5 34 1 22 21 -7 11 -16 20 -21 20 -4 0 -6 -4 -3 -9 3 -5 -1 -12 -10 -15
-23 -9 -27 -8 -21 8 3 8 -1 13 -11 12 -11 -1 -16 5 -14 17 3 20 -4 23 -11 4z"/>
<path d="M2570 2292 c0 -28 3 -53 8 -55 4 -3 7 17 7 43 0 27 -3 52 -7 56 -5 4
-8 -16 -8 -44z"/>
<path d="M1066 2305 c-7 -18 -32 -20 -40 -2 -5 10 -7 10 -12 0 -3 -7 -12 -13
-20 -13 -8 0 -14 -4 -14 -10 0 -5 9 -10 19 -10 11 0 26 -2 33 -5 8 -3 23 7 36
25 13 16 18 30 13 30 -5 0 -11 -7 -15 -15z"/>
<path d="M2286 2273 c-11 -11 -6 -23 9 -23 8 0 15 4 15 9 0 13 -16 22 -24 14z"/>
<path d="M350 2235 c0 -8 5 -15 10 -15 6 0 10 7 10 15 0 8 -4 15 -10 15 -5 0
-10 -7 -10 -15z"/>
<path d="M2580 2205 c0 -16 16 -20 24 -6 3 5 -1 11 -9 15 -9 3 -15 0 -15 -9z"/>
<path d="M2160 2037 c0 -89 0 -169 -1 -177 -1 -8 -1 -26 0 -40 1 -22 3 -23 12
-7 5 9 8 21 5 25 -2 4 -1 14 5 22 10 17 10 14 15 -120 2 -57 -1 -87 -9 -92 -9
-6 -9 -8 1 -8 16 0 16 -47 0 -52 -9 -3 -7 -10 6 -23 17 -17 17 -20 2 -30 -9
-7 -16 -20 -16 -29 0 -14 14 -16 105 -16 86 0 105 3 105 15 0 9 -6 12 -15 9
-12 -5 -15 5 -15 61 0 57 2 66 14 56 16 -13 20 -9 30 34 4 16 12 33 18 36 6 4
12 23 14 44 2 20 8 43 14 49 5 7 6 17 2 21 -4 5 -1 5 7 0 8 -4 17 -2 22 6 6
11 12 10 28 -5 21 -19 21 -19 21 8 0 23 -3 26 -24 20 -13 -3 -27 -1 -30 5 -4
5 -13 8 -21 5 -10 -4 -15 9 -20 51 -6 46 -12 59 -30 67 -29 13 -39 45 -40 133
-1 68 -2 69 -31 76 -16 4 -62 9 -101 12 l-73 6 0 -162z m87 -249 c-3 -8 -6 -5
-6 6 -1 11 2 17 5 13 3 -3 4 -12 1 -19z m13 -52 c0 -8 -4 -18 -10 -21 -5 -3
-10 3 -10 14 0 12 5 21 10 21 6 0 10 -6 10 -14z m0 -66 c0 -11 -4 -20 -10 -20
-5 0 -10 9 -10 20 0 11 5 20 10 20 6 0 10 -9 10 -20z m10 -119 c0 -12 -20 -25
-27 -18 -7 7 6 27 18 27 5 0 9 -4 9 -9z m27 -13 c-3 -8 -6 -5 -6 6 -1 11 2 17
5 13 3 -3 4 -12 1 -19z"/>
<path d="M1840 2159 c0 -5 5 -7 10 -4 6 3 10 8 10 11 0 2 -4 4 -10 4 -5 0 -10
-5 -10 -11z"/>
<path d="M2580 2127 c0 -23 4 -36 10 -32 13 8 13 35 0 55 -7 11 -10 5 -10 -23z"/>
<path d="M2646 2125 c-9 -26 -7 -32 5 -12 6 10 9 21 6 23 -2 3 -7 -2 -11 -11z"/>
<path d="M2626 2052 c-4 -24 -5 -46 -2 -49 12 -12 17 6 14 48 l-3 44 -9 -43z"/>
<path d="M2592 2000 c0 -14 2 -19 5 -12 2 6 2 18 0 25 -3 6 -5 1 -5 -13z"/>
<path d="M2117 1912 c-5 -6 -5 -33 -1 -58 5 -36 9 -43 16 -30 11 20 -4 107
-15 88z"/>
<path d="M542 1861 c-12 -7 -5 -51 8 -51 4 0 12 6 18 13 13 15 -9 49 -26 38z"/>
<path d="M1331 1860 c1 -29 15 -54 23 -42 4 7 0 22 -8 34 -10 14 -16 17 -15 8z"/>
<path d="M2375 1600 c-3 -5 1 -10 9 -10 9 0 16 5 16 10 0 6 -4 10 -9 10 -6 0
-13 -4 -16 -10z"/>
<path d="M2620 1501 c0 -5 5 -13 10 -16 6 -3 10 -2 10 4 0 5 -4 13 -10 16 -5
3 -10 2 -10 -4z"/>
<path d="M1662 1441 c-11 -7 -11 -9 2 -14 10 -4 16 -1 16 8 0 17 -1 17 -18 6z"/>
<path d="M1135 1390 c-13 -20 19 -49 52 -48 29 1 33 5 33 27 0 24 -4 27 -40
28 -22 1 -42 -2 -45 -7z"/>
<path d="M1221 1234 c0 -11 3 -14 6 -6 3 7 2 16 -1 19 -3 4 -6 -2 -5 -13z"/>
<path d="M2065 1240 c4 -6 11 -8 16 -5 14 9 11 15 -7 15 -8 0 -12 -5 -9 -10z"/>
<path d="M1183 1193 c-12 -2 -24 -10 -27 -18 -3 -9 0 -12 10 -8 7 3 14 0 14
-6 0 -6 -11 -13 -25 -17 -26 -6 -26 -7 -5 -21 11 -8 18 -19 15 -24 -12 -19 17
-8 41 16 13 13 33 29 44 35 24 13 26 36 4 44 -16 6 -35 6 -71 -1z"/>
<path d="M2980 1154 c-83 -8 -196 -27 -207 -37 -9 -6 -13 -6 -13 2 0 6 -11 11
-25 11 -20 0 -25 -5 -25 -26 0 -22 3 -24 23 -18 29 10 58 12 200 13 117 1 117
1 117 25 0 13 -7 27 -16 30 -9 3 -16 5 -17 4 -1 0 -18 -3 -37 -4z"/>
<path d="M817 1073 c-3 -27 -9 -63 -13 -80 l-6 -33 90 0 c72 0 100 4 130 20
60 32 123 11 106 -35 -4 -8 -10 -15 -15 -15 -5 0 -9 -4 -9 -10 0 -5 14 -10 30
-10 27 0 30 3 30 30 0 17 5 30 11 30 5 0 8 4 5 9 -10 15 18 19 32 4 8 -7 36
-13 67 -13 44 0 54 3 58 19 3 11 2 22 -1 25 -3 3 -40 6 -83 6 -43 0 -80 4 -84
9 -7 13 56 25 92 17 16 -3 39 0 52 8 21 12 15 14 -70 18 -104 6 -147 -4 -115
-28 36 -26 -13 -35 -156 -27 -118 6 -129 8 -99 18 l34 11 -31 13 c-23 10 -32
20 -32 37 0 43 -17 25 -23 -23z"/>
<path d="M2635 1090 c-4 -6 -17 -16 -29 -21 -19 -9 -19 -9 4 -4 14 2 36 5 50
6 16 0 19 3 10 6 -8 3 -18 10 -21 16 -4 5 -9 4 -14 -3z"/>
<path d="M920 1050 c0 -23 6 -24 39 -6 l23 13 -23 6 c-36 10 -39 9 -39 -13z"/>
<path d="M2518 1053 c7 -3 16 -2 19 1 4 3 -2 6 -13 5 -11 0 -14 -3 -6 -6z"/>
<path d="M2210 1030 c0 -5 11 -10 25 -10 14 0 25 5 25 10 0 6 -11 10 -25 10
-14 0 -25 -4 -25 -10z"/>
<path d="M2148 1013 c7 -3 16 -2 19 1 4 3 -2 6 -13 5 -11 0 -14 -3 -6 -6z"/>
<path d="M580 970 c-36 -6 -26 -7 45 -7 60 -1 80 2 60 7 -36 9 -46 9 -105 0z"/>
<path d="M493 963 c9 -2 23 -2 30 0 6 3 -1 5 -18 5 -16 0 -22 -2 -12 -5z"/>
<path d="M1305 920 c-3 -5 -1 -10 4 -10 6 0 11 5 11 10 0 6 -2 10 -4 10 -3 0
-8 -4 -11 -10z"/>
<path d="M1485 850 c-3 -5 -1 -10 4 -10 6 0 11 5 11 10 0 6 -2 10 -4 10 -3 0
-8 -4 -11 -10z"/>
<path d="M1438 833 c6 -2 18 -2 25 0 6 3 1 5 -13 5 -14 0 -19 -2 -12 -5z"/>
<path d="M2944 1566 c-13 -19 -14 -19 -34 -1 -16 14 -22 15 -35 5 -18 -15 -20
-36 -2 -43 7 -3 5 -6 -5 -6 -37 -2 -16 -21 22 -21 29 0 40 -4 40 -15 0 -8 5
-15 10 -15 6 0 10 7 10 15 0 10 10 15 34 15 31 0 34 3 32 26 -2 14 -9 30 -17
35 -10 6 -10 9 -1 9 6 0 12 4 12 10 0 17 -51 6 -66 -14z m13 -47 c-14 -8 -22
-8 -30 0 -8 8 -3 11 19 11 25 -1 27 -2 11 -11z"/>
<path d="M3072 1390 c0 -19 2 -27 5 -17 2 9 2 25 0 35 -3 9 -5 1 -5 -18z"/>
<path d="M3071 1244 c0 -11 3 -14 6 -6 3 7 2 16 -1 19 -3 4 -6 -2 -5 -13z"/>
<path d="M6031 5194 c-8 -47 -11 -87 -9 -90 3 -2 10 34 18 82 7 47 10 87 8 90
-3 2 -10 -34 -17 -82z"/>
<path d="M5990 4940 c-12 -83 -21 -152 -18 -155 2 -2 14 63 27 146 13 82 21
152 19 155 -3 2 -15 -64 -28 -146z"/>
<path d="M5958 4735 c-3 -22 -29 -186 -57 -364 -28 -178 -49 -326 -47 -329 6
-5 8 7 35 173 55 344 82 528 79 543 -2 10 -7 -1 -10 -23z"/>
<path d="M5836 3969 c-4 -28 -5 -53 -3 -56 3 -2 8 19 12 47 4 28 5 53 2 56 -2
3 -7 -19 -11 -47z"/>
<path d="M5822 3875 c0 -16 2 -22 5 -12 2 9 2 23 0 30 -3 6 -5 -1 -5 -18z"/>
<path d="M5812 3810 c0 -14 2 -19 5 -12 2 6 2 18 0 25 -3 6 -5 1 -5 -13z"/>
<path d="M5802 3740 c0 -14 2 -19 5 -12 2 6 2 18 0 25 -3 6 -5 1 -5 -13z"/>
<path d="M5791 3684 c0 -11 3 -14 6 -6 3 7 2 16 -1 19 -3 4 -6 -2 -5 -13z"/>
<path d="M5781 3624 c0 -11 3 -14 6 -6 3 7 2 16 -1 19 -3 4 -6 -2 -5 -13z"/>
<path d="M5772 3560 c0 -14 2 -19 5 -12 2 6 2 18 0 25 -3 6 -5 1 -5 -13z"/>
<path d="M5762 3495 c0 -16 2 -22 5 -12 2 9 2 23 0 30 -3 6 -5 -1 -5 -18z"/>
<path d="M5752 3430 c0 -14 2 -19 5 -12 2 6 2 18 0 25 -3 6 -5 1 -5 -13z"/>
<path d="M5742 3370 c0 -14 2 -19 5 -12 2 6 2 18 0 25 -3 6 -5 1 -5 -13z"/>
<path d="M5731 3304 c0 -11 3 -14 6 -6 3 7 2 16 -1 19 -3 4 -6 -2 -5 -13z"/>
<path d="M5722 3240 c0 -14 2 -19 5 -12 2 6 2 18 0 25 -3 6 -5 1 -5 -13z"/>
<path d="M5711 3184 c0 -11 3 -14 6 -6 3 7 2 16 -1 19 -3 4 -6 -2 -5 -13z"/>
<path d="M5702 3120 c0 -14 2 -19 5 -12 2 6 2 18 0 25 -3 6 -5 1 -5 -13z"/>
<path d="M5691 3054 c0 -11 3 -14 6 -6 3 7 2 16 -1 19 -3 4 -6 -2 -5 -13z"/>
<path d="M5682 2990 c0 -14 2 -19 5 -12 2 6 2 18 0 25 -3 6 -5 1 -5 -13z"/>
<path d="M5672 2930 c0 -14 2 -19 5 -12 2 6 2 18 0 25 -3 6 -5 1 -5 -13z"/>
<path d="M5662 2855 c0 -16 2 -22 5 -12 2 9 2 23 0 30 -3 6 -5 -1 -5 -18z"/>
<path d="M5652 2800 c0 -14 2 -19 5 -12 2 6 2 18 0 25 -3 6 -5 1 -5 -13z"/>
<path d="M5642 2735 c0 -16 2 -22 5 -12 2 9 2 23 0 30 -3 6 -5 -1 -5 -18z"/>
<path d="M5632 2680 c0 -14 2 -19 5 -12 2 6 2 18 0 25 -3 6 -5 1 -5 -13z"/>
<path d="M5622 2610 c0 -14 2 -19 5 -12 2 6 2 18 0 25 -3 6 -5 1 -5 -13z"/>
<path d="M5612 2550 c0 -14 2 -19 5 -12 2 6 2 18 0 25 -3 6 -5 1 -5 -13z"/>
<path d="M5595 2455 c-3 -31 -5 -59 -2 -61 3 -3 8 20 12 51 3 31 5 59 2 61 -3
3 -8 -20 -12 -51z"/>
<path d="M5582 2355 c0 -16 2 -22 5 -12 2 9 2 23 0 30 -3 6 -5 -1 -5 -18z"/>
<path d="M5571 2294 c0 -11 3 -14 6 -6 3 7 2 16 -1 19 -3 4 -6 -2 -5 -13z"/>
<path d="M5562 2225 c0 -16 2 -22 5 -12 2 9 2 23 0 30 -3 6 -5 -1 -5 -18z"/>
<path d="M5552 2170 c0 -14 2 -19 5 -12 2 6 2 18 0 25 -3 6 -5 1 -5 -13z"/>
<path d="M5542 2105 c0 -16 2 -22 5 -12 2 9 2 23 0 30 -3 6 -5 -1 -5 -18z"/>
<path d="M5532 2040 c0 -14 2 -19 5 -12 2 6 2 18 0 25 -3 6 -5 1 -5 -13z"/>
<path d="M5522 1975 c0 -16 2 -22 5 -12 2 9 2 23 0 30 -3 6 -5 -1 -5 -18z"/>
<path d="M5512 1915 c0 -16 2 -22 5 -12 2 9 2 23 0 30 -3 6 -5 -1 -5 -18z"/>
<path d="M5502 1850 c0 -14 2 -19 5 -12 2 6 2 18 0 25 -3 6 -5 1 -5 -13z"/>
<path d="M5492 1790 c0 -14 2 -19 5 -12 2 6 2 18 0 25 -3 6 -5 1 -5 -13z"/>
<path d="M5482 1725 c0 -16 2 -22 5 -12 2 9 2 23 0 30 -3 6 -5 -1 -5 -18z"/>
<path d="M5472 1665 c0 -16 2 -22 5 -12 2 9 2 23 0 30 -3 6 -5 -1 -5 -18z"/>
<path d="M5462 1600 c0 -19 2 -27 5 -17 2 9 2 25 0 35 -3 9 -5 1 -5 -18z"/>
<path d="M5452 1540 c0 -14 2 -19 5 -12 2 6 2 18 0 25 -3 6 -5 1 -5 -13z"/>
<path d="M5442 1475 c0 -16 2 -22 5 -12 2 9 2 23 0 30 -3 6 -5 -1 -5 -18z"/>
<path d="M5431 1414 c0 -11 3 -14 6 -6 3 7 2 16 -1 19 -3 4 -6 -2 -5 -13z"/>
<path d="M5422 1355 c0 -16 2 -22 5 -12 2 9 2 23 0 30 -3 6 -5 -1 -5 -18z"/>
<path d="M5412 1290 c0 -14 2 -19 5 -12 2 6 2 18 0 25 -3 6 -5 1 -5 -13z"/>
<path d="M5402 1220 c0 -19 2 -27 5 -17 2 9 2 25 0 35 -3 9 -5 1 -5 -18z"/>
<path d="M5392 1160 c0 -14 2 -19 5 -12 2 6 2 18 0 25 -3 6 -5 1 -5 -13z"/>
<path d="M5382 1100 c0 -14 2 -19 5 -12 2 6 2 18 0 25 -3 6 -5 1 -5 -13z"/>
<path d="M5372 1040 c0 -14 2 -19 5 -12 2 6 2 18 0 25 -3 6 -5 1 -5 -13z"/>
<path d="M5362 965 c0 -16 2 -22 5 -12 2 9 2 23 0 30 -3 6 -5 -1 -5 -18z"/>
<path d="M5352 910 c0 -14 2 -19 5 -12 2 6 2 18 0 25 -3 6 -5 1 -5 -13z"/>
<path d="M5342 845 c0 -16 2 -22 5 -12 2 9 2 23 0 30 -3 6 -5 -1 -5 -18z"/>
<path d="M5331 784 c0 -11 3 -14 6 -6 3 7 2 16 -1 19 -3 4 -6 -2 -5 -13z"/>
<path d="M5312 660 c0 -14 2 -19 5 -12 2 6 2 18 0 25 -3 6 -5 1 -5 -13z"/>
<path d="M5302 610 c0 -14 2 -19 5 -12 2 6 2 18 0 25 -3 6 -5 1 -5 -13z"/>
</g>
</svg>
